<svg>
    <defs>
        <path id="Ant" d="m119.685 45.9489c-5.52608-1.56589-12.1567-0.59831-17.0385-0.23012-4.88174 0.36819-1.33576-0.13808-3.63696-0.78241-2.30226-0.64541-7.87437 2.07322-9.02604 2.62443-1.1506 0.55336-0.78241 0.87446-2.57841 0.046-1.796-0.82843-6.30956-0.1841-10.8681 0.50733s-4.23527-0.13914-3.86708-0.18516c0.36819-0.046 0.55229-1.19663 0.092-2.85456-0.46131-1.65793-0.55336-2.21022-0.55336-3.45393 0-1.24372 0.046-1.65794 0.41529-1.51986 0.36819 0.13807 4.28236-1.98117 4.28236-1.98117 6.17042-4.74368 5.1108-4.83573 5.34092-5.52502 0.23012-0.69142 0.41529-0.4613 3.40791-0.7824 2.9937-0.32324 4.46753-2.25624 6.44656-3.50103 1.98117-1.24265 2.90165-0.91941 3.77611-0.87339 0.87445 0.046 3.45393 0.32217 4.74367 0.046 1.28867-0.27722 2.07215-1.42781 4.69765-2.30334 2.62444-0.87338 0.137-0.78134-3.22381-0.78134-3.36189 0-5.98739 1.3347-9.76243 1.47384-3.7761 0.13807-4.23741 1.1035-5.43403 1.74998-1.19662 0.64434-4.09827 2.67046-5.20285 2.71648-1.10564 0.046-2.07321-0.046-2.6255 0.59938-0.55229 0.64434-7.13692 5.38694-7.55221 5.98633-0.41421 0.59938-2.20914-6.99992-3.54598-9.43919-1.33576-2.44141-4.46753-3.36189-4.88175-3.31586-0.41528 0.046-0.13807-0.55443-0.13807-0.55443s2.02612 1.15167 4.74261-0.69036c2.71755-1.84203 2.71755-4.32946 2.71755-5.43404 0-1.10457-0.1841-1.84202-0.1841-1.84202 0.46024-0.1841 1.10458-0.55336 1.10458-1.47277 0-0.92155-0.55336-2.02719-0.92048-2.39538-0.36926-0.3682-0.36926-1.38179-0.36926-1.93408s1.28974 0.64434 2.85562 1.84203c1.56589 1.19769 3.03865 3.59094 4.23634 2.85562 1.19663-0.73638 8.1045-11.9737 8.65785-12.618 0.55229-0.645405 2.57841-1.19769 1.65794-1.74998-0.92155-0.552287-1.65794 0.368191-1.65794 0.368191-2.76357 2.30227-6.72377 9.76242-7.64532 10.9601-0.92155 1.1977-1.38179 1.56589-1.84203 1.38179-0.46131-0.18409-5.89427-4.88175-8.10449-6.99992-2.06894-1.98224-7.47086-2.66404-8.15801-2.74324v-0.0086s-0.015 0.0011-0.0364 0.0043c-0.0225-0.0021-0.0364-0.0043-0.0364-0.0043v0.0086c-0.68822 0.0792-6.09014 0.761-8.15801 2.74324-2.21022 2.11817-7.64532 6.81583-8.10449 6.99992-0.46131 0.1841-0.92048-0.18409-1.8431-1.38179-0.92048-1.19769-4.88175-8.65678-7.64425-10.9601 0 0-0.73639-0.920478-1.65793-0.368191-0.92048 0.552287 1.10564 1.10457 1.65793 1.74998 0.55335 0.645406 7.46122 11.8817 8.65785 12.618 1.19662 0.73639 2.67046-1.65793 4.23634-2.85562s2.85455-2.39432 2.85455-1.84203 0 1.56588-0.36819 1.93408c-0.36819 0.36926-0.92048 1.47383-0.92048 2.39538 0 0.91941 0.64541 1.28867 1.10565 1.47277 0 0-0.18517 0.73638-0.18517 1.84202 0 1.10565 0 3.59201 2.71648 5.43404 2.71756 1.84203 4.74368 0.69036 4.74368 0.69036s0.27721 0.60045-0.13807 0.55443c-0.41422-0.046-3.54599 0.87338-4.88175 3.31586-1.33576 2.43927-3.13177 10.0386-3.54598 9.43919-0.41529-0.59939-6.99992-5.34199-7.55328-5.98633-0.55229-0.6454-1.51879-0.55335-2.62443-0.59938-1.10458-0.046-4.00623-2.07321-5.20285-2.71648-1.19769-0.64648-1.659-1.61191-5.43403-1.74998-3.77503-0.13914-6.40054-1.47384-9.76243-1.47384-3.36188 0-5.84825-0.092-3.22381 0.78134 2.6255 0.87553 3.40898 2.02719 4.69765 2.30334 1.28974 0.27614 3.86708 0 4.74368-0.046 0.87445-0.046 1.796-0.36926 3.77503 0.87339 1.98117 1.24372 3.45393 3.17779 6.44763 3.50103 2.99262 0.32217 3.17672 0.0921 3.40791 0.7824 0.23012 0.69036-0.8295 0.78134 5.34092 5.52502 0 0 3.91417 2.11817 4.28236 1.98117 0.36819-0.13701 0.41422 0.27721 0.41422 1.51986 0 1.24264-0.091 1.796-0.55229 3.45393-0.46024 1.65793-0.27614 2.80853 0.092 2.85456 0.36819 0.046 0.69143 0.87552-3.86815 0.18516-4.55851-0.69143-9.07207-1.33576-10.867-0.50733s-1.42781 0.50733-2.57841-0.046c-1.15167-0.55228-6.72271-3.26984-9.02604-2.62443-2.30334 0.64541 1.24371 1.1506-3.63696 0.78241-4.88068-0.36819-11.5135-1.33577-17.0385 0.23012 0 0-1.10564 0.73638 0.73638 0.46024 1.84203-0.27615 8.28859-0.32217 10.867-0.0921 2.57841 0.23012 7.87438 0.41528 8.01245 0.96757s5.80115 2.25517 10.3607 2.34722c0 0 0.8295-0.32217 1.88805 0.50733 1.05962 0.82843 1.05962 0.78241 6.35559 0.82843 5.29596 0.046 7.59823-0.36819 8.70387-0.50626 1.10458-0.13807 2.34829-0.18409 2.34829 0.046 0 0.23012 1.10565 7.32101 3.22382 9.02497 0 0 0.36819 0.13914-0.18517 0.78347-0.55229 0.64434-1.38072 1.84203-1.1506 3.08575 0 0 0.73639-0.23012-1.84202 1.796s-9.53124 7.55114-12.2028 13.7676c0 0-0.27614 0.32324-0.92048 0.64647-0.6454 0.32217-1.24264 0.96544-1.15059 2.9466 0.092 1.98117-0.13808 1.19663-0.96651 2.07322-0.82843 0.87339-6.81582 11.6044-6.63065 12.3408 0.18409 0.73638 0.73638 0.32323-0.23119 2.07214-0.96651 1.75105-9.85448 14.322-11.2823 16.6243-1.42674 2.30119-3.95913 5.7562-3.36188 6.07836 0.59938 0.32217 4.51355-5.80222 5.38801-6.99991 0.87445-1.19663 10.4078-15.5647 10.959-16.026 0.55336-0.46024 1.38179 0 1.74998-0.41422 0.36926-0.41421 5.98739-12.8942 6.03342-13.7216 0.046-0.8295 0.32217-1.15167 0.55336-1.28974 0.22904-0.13807 1.98009-0.41529 2.02612-1.65793 0.046-1.24372 0.9665-2.07215 2.44034-3.82106 1.47276-1.75105 5.80222-6.44656 7.73737-9.48628 1.93407-3.03972 2.16312-1.74998 2.85455-2.25731 0.69143-0.50627 0.69143-1.93408 1.38179-1.88806 0.69036 0.0471 1.42674-0.046 0.78134 1.56589-0.64434 1.61191-0.0921 1.98117 0.55335 2.85562 0.64541 0.87553 0.69143 1.51986-0.046 1.70396-0.73638 0.18409-3.17779 2.30227-1.33576 4.51355 0 0 0.50733 0.27615-0.73639 0.91941-1.24371 0.64648-7.27606 4.14537-9.16518 8.6129-1.88805 4.46646-1.93408 9.85233-1.84203 12.708 0.0921 2.85563 0.92048 9.39424 4.60561 13.1714 3.67549 3.76647 6.45512 6.73662 13.1446 6.7516h0.045c6.68952-0.015 9.47022-2.98513 13.1446-6.7516 3.68299-3.77611 4.51356-10.3158 4.60561-13.1714 0.092-2.85562 0.046-8.24149-1.8431-12.708-1.88805-4.46753-7.91933-7.96642-9.16411-8.6129-1.24265-0.64433-0.73639-0.91941-0.73639-0.91941 1.84203-2.21021-0.59938-4.32946-1.33469-4.51355-0.73638-0.1841-0.69143-0.82736-0.0471-1.70396 0.6454-0.87445 1.19769-1.24371 0.55335-2.85562-0.64433-1.61191 0.0921-1.51879 0.78241-1.56589 0.69143-0.046 0.69143 1.38179 1.38179 1.88806 0.69143 0.5084 0.92048-0.78134 2.85562 2.25731 1.93408 3.03972 6.26247 7.7363 7.7363 9.48628 1.47384 1.74998 2.39325 2.57734 2.44034 3.82106 0.046 1.24264 1.79601 1.51986 2.02613 1.65793 0.23119 0.13807 0.50733 0.46024 0.55335 1.28974 0.046 0.82736 5.66416 13.3084 6.03235 13.7216 0.36926 0.41422 1.19769-0.046 1.75105 0.41422 0.55229 0.46131 10.0846 14.8283 10.959 16.026 0.87445 1.19769 4.78969 7.32208 5.38694 6.99991 0.59938-0.32216-1.93408-3.7761-3.36082-6.07836-1.42781-2.30227-10.3158-14.8732-11.2834-16.6243-0.9665-1.74891-0.41421-1.33469-0.23012-2.07214 0.18517-0.73639-5.80222-11.4674-6.63065-12.3408-0.82843-0.87552-1.05855-0.0921-0.9665-2.07322 0.092-1.98116-0.50734-2.62443-1.1506-2.9466-0.64541-0.32323-0.92155-0.64647-0.92155-0.64647-2.67046-6.21751-9.62328-11.7425-12.2028-13.7676-2.57841-2.02612-1.84096-1.796-1.84096-1.796 0.23012-1.24372-0.59938-2.44141-1.15167-3.08575-0.55336-0.6454-0.1841-0.78347-0.1841-0.78347 2.11818-1.70396 3.22382-8.79485 3.22382-9.02497s1.24265-0.1841 2.34829-0.046c1.10457 0.13807 3.40791 0.55229 8.7028 0.50626 5.29597-0.046 5.29597 0 6.35559-0.82843s1.88805-0.50733 1.88805-0.50733c4.55958-0.0921 10.2237-1.796 10.3618-2.34722 0.13808-0.55336 5.43404-0.73745 8.01245-0.96757s9.02604-0.1841 10.867 0.0921c1.83988 0.27614 0.73531-0.46024 0.73531-0.46024z"/>
        <path id="Beetle" d="m14.804 130.216c3.3461-8.72002 3.4953-10.0946 2.2887-21.0959-0.8189-7.46681 1.044-13.7872 5.2202-17.7105 3.042-2.85779 3.7155-10.2491 0.934-10.2491-4.2591 0-5.5829 1.94295-5.5829 8.19426 0 3.33699-0.4561 6.34915-1.0136 6.6937-0.5575 0.34454-1.9894 3.8391-3.1821 7.76567-2.03997 6.71635-3.1746 8.31574-4.44316 6.26319-0.29779-0.48185 0.5926-4.527 1.97862-8.98923 1.59114-5.12261 2.52574-10.6229 2.53554-14.9219 0.017-7.59382 0.4811-8.27876 6.8977-10.1832 3.0862-0.91601 4.402-1.89646 4.6231-3.44497 0.1939-1.35854 1.1917-2.28966 2.6797-2.50057 3.6213-0.51331 2.1195-2.58994-2.958-4.09039-2.5022-0.7394-5.2429-1.69052-6.0904-2.11358-2.0477-1.02209-5.7751-8.65286-7.34377-15.0341-0.92665-3.76938-2.57845-6.51261-6.20555-10.3057-7.82118-8.17911-6.37457-10.1822 1.99173-2.75799 5.86479 5.20446 6.94929 6.68667 7.02999 9.60872 0.052 1.90022 1.1612 5.68841 2.4638 8.41818 2.4047 5.0393 5.0059 6.85121 9.8357 6.85121 2.0817 0 2.5015-0.50553 2.5015-3.0128 0-2.09276-0.6166-3.20846-2.019-3.65358-2.2699-0.720455-3.1697-4.36276-3.0481-12.3394 0.043-2.82519-0.234-8.6676-0.6158-12.9832-0.9797-11.0748 1.2342-18.3925 7.3388-24.2579 2.4993-2.40142 5.3012-4.3662 6.2264-4.3662 1.5083 0 1.4931 0.208884-0.1467 2.0209-1.7153 1.89534-1.7361 3.37194-0.103 7.31055 0.5519 1.33112 0.088 1.54041-2.5524 1.15281-2.7234-0.399701-3.1691-0.173823-2.8568 1.44781 0.2035 1.05677 1.7469 2.5813 3.4297 3.38786s2.6018 1.57868 2.0421 1.71581c-0.5596 0.13713-2.2427 0.51813-3.7401 0.84666-5.1858 1.1378-5.7506 8.35595-1.2499 15.975 1.9403 3.28468 2.92 3.80246 3.9725 2.09954 0.3492-0.56504 2.6607-1.02735 5.1367-1.02735 2.4759 0 4.7874 0.46231 5.1367 1.02735 1.0524 1.70292 2.0321 1.18514 3.9724-2.09954 4.5007-7.61903 3.9359-14.8372-1.2499-15.975-1.4974-0.32853-3.1805-0.70953-3.7401-0.84666-0.5597-0.13713 0.3593-0.90925 2.0421-1.71581 1.6828-0.806563 3.2262-2.3311 3.4297-3.38786 0.3123-1.62163-0.1334-1.84751-2.8567-1.44781-2.6409 0.387607-3.1044 0.178309-2.5525-1.15281 1.6331-3.93861 1.6123-5.41521-0.103-7.31055-1.6398-1.81202-1.655-2.0209-0.1467-2.0209 0.9252 0 3.7271 1.96478 6.2265 4.3662 6.1046 5.86545 8.3184 13.1831 7.3387 24.2579-0.3818 4.31555-0.6589 10.158-0.6158 12.9832 0.1216 7.97666-0.7781 11.619-3.048 12.3394-1.4025 0.44512-2.0191 1.56082-2.0191 3.65358 0 2.50727 0.4198 3.0128 2.5015 3.0128 4.8298 0 7.431-1.81191 9.8357-6.85121 1.3025-2.72978 2.4113-6.51796 2.4637-8.41818 0.081-2.92205 1.1651-4.40426 7.03-9.60872 8.3663-7.42424 9.813-5.42112 1.9918 2.75799-3.6271 3.79309-5.279 6.53632-6.2056 10.3057-1.5687 6.38128-5.2961 14.0121-7.3437 15.0341-0.8475 0.42306-3.5882 1.37418-6.0904 2.11358-5.0775 1.50045-6.5792 3.57708-2.958 4.09039 1.488 0.21091 2.4858 1.14203 2.6798 2.50057 0.221 1.54851 1.5368 2.52896 4.623 3.44497 6.4165 1.90448 6.8804 2.58942 6.8976 10.1832 0.011 4.29901 0.9444 9.79931 2.5356 14.9219 1.386 4.46223 2.2764 8.50738 1.9786 8.98923-1.2686 2.05255-2.4032 0.45316-4.4432-6.26319-1.1927-3.92657-2.6247-7.42113-3.1822-7.76567-0.5573-0.34455-1.0135-3.35671-1.0135-6.6937 0-6.25131-1.3237-8.19426-5.5828-8.19426-2.7815 0-2.108 7.39133 0.934 10.2491 4.1761 3.92333 6.0391 10.2437 5.2201 17.7105-1.2064 11.0013-1.0573 12.3759 2.2887 21.0959 2.6074 6.79481 2.9455 8.47557 1.7049 8.47557-0.851 0-1.8314-0.80904-2.1785-1.79785s-2.2122-5.26513-4.1444-9.5029c-3.5116-7.70111-3.5128-7.709-2.3089-15.4101 0.8737-5.58939 0.8992-8.48079 0.093-10.5302-1.5863-4.03164-3.8786-3.5569-4.7296 0.97956-1.0993 5.85995-4.9221 10.784-8.0319 13.6965-3.5876 3.35997-3.7985 6.19734-4.9806-3.60487l-1.4899-12.3554-1.296 12.3554c-1.0228 9.75079-1.393 6.96484-4.9924 3.60487-3.1145-2.90738-6.9325-7.83656-8.0318-13.6965-0.8511-4.53646-3.1433-5.0112-4.7296-0.97956-0.8065 2.04945-0.781 4.94085 0.093 10.5302 1.2038 7.70111 1.2026 7.709-2.3089 15.4101-1.9324 4.23777-3.7974 8.51409-4.1445 9.5029s-1.3275 1.79785-2.1786 1.79785c-1.24053 0-0.9024-1.68076 1.7049-8.47557zm33.6802-69.0403v-4.15769h-15.4101v4.06605c0 3.30353 0.7139 4.7971 3.8066 7.96438l3.8067 3.89836 3.8984-3.80669c3.2437-3.16742 3.8984-4.50493 3.8984-7.96441z"/>
        <path id="Grasshopper" d="m12.914 0c-1.4681 0-1.3675 1.74556 0.2485 4.33307 1.1742 1.88032 0.7663 2.71456-3.4224 6.9826-4.5653 4.65194-4.6998 4.95505-3.0911 7.41038 1.5423 2.3536 1.4665 3.19331-0.9383 10.3635-2.7222 8.11703-4.6426 19.5336-2.7874 16.5457 0.5566-0.89642 1.3261-3.70377 1.711-6.23744 0.3848-2.53367 1.7223-7.32669 2.9669-10.6533l2.2633-6.04422 4.2501 5.68542c2.3392 3.13522 4.0456 6.47815 3.7949 7.41039-0.2509 0.93224-0.7617 3.48817-1.1314 5.68544-0.4525 2.68782-3.1536 7.10252-8.2522 13.5098-5.4892 6.89761-7.3913 10.1006-6.9135 11.6054 0.3623 1.14275 1.0391 4.83658 1.5038 8.21078 0.6905 5.00987 0.4661 6.87823-1.2004 10.1703-2.433 4.80602-2.467 5.20244-0.5657 5.20244 0.8057 0 2.2951-1.84373 3.3118-4.09847 1.5023-3.33151 1.6554-5.27668 0.8556-10.3773-0.9815-6.25856-0.9641-6.29641 3.9329-13.8272 2.7012-4.15382 5.3096-7.54839 5.8096-7.54839 1.518 0 1.0349 1.72985-1.3385 4.74706-3.7781 4.80293-6.4306 18.6972-6.4306 33.6296 0 7.28684-0.4863 14.8953-1.0626 16.9045-0.7766 2.70801-0.6478 4.4098 0.4829 6.59622 3.0689 5.93464 5.1843 17.9001 5.1473 29.1172-0.02 6.12552 0.3918 11.1363 0.9245 11.1363 1.1548 0 1.7616-2.62626 2.6219-11.5089 0.512-5.28405 0.054-8.66044-2.263-16.7389-2.1457-7.47987-2.6154-10.5989-1.7801-11.9366 0.6796-1.08836 0.8972-5.49044 0.5519-11.0259-0.4511-7.22733-0.1884-9.92703 1.2006-12.6128 0.9733-1.88204 1.7663-4.53421 1.7663-5.87863 0-5.89046 1.9687 0.59481 3.6155 11.9505 2.4671 17.0095 4.6832 23.8043 7.7967 23.8043 3.1136 0 5.3436-6.79479 7.8106-23.8043 1.6469-11.3556 3.6016-17.8409 3.6016-11.9505 0 1.34442 0.7932 3.99659 1.7665 5.87863 1.389 2.6858 1.6514 5.3855 1.2007 12.6128-0.3455 5.53544-0.128 9.93752 0.5518 11.0259 0.8354 1.33777 0.3794 4.45678-1.7663 11.9366-2.3177 8.07848-2.775 11.4549-2.263 16.7389 0.8602 8.88261 1.4531 11.5089 2.608 11.5089 0.5329 0 0.9452-5.01076 0.9245-11.1363-0.037-11.2171 2.0922-23.1825 5.1611-29.1172 1.1307-2.18645 1.2458-3.88818 0.4692-6.59622-0.5763-2.00926-1.0489-9.61768-1.0489-16.9045 0-14.9324-2.6524-28.8267-6.4306-33.6296-2.3733-3.01721-2.8701-4.74706-1.3523-4.74706 0.4999 0 3.1222 3.39458 5.8234 7.54839 4.8971 7.53078 4.9145 7.56863 3.933 13.8272-0.7998 5.10064-0.6467 7.04581 0.8555 10.3773 1.0167 2.25474 2.5061 4.09847 3.3118 4.09847 1.9013 0 1.8674-0.3964-0.5656-5.20244-1.6665-3.29205-1.891-5.16041-1.2005-10.1703 0.4648-3.3742 1.1414-7.06803 1.5039-8.21078 0.4777-1.50482-1.4382-4.70787-6.9273-11.6054-5.0988-6.4073-7.786-10.822-8.2385-13.5098-0.3697-2.1973-0.8805-4.7532-1.1314-5.68544-0.2506-0.93224 1.4556-4.27517 3.7949-7.41039l4.2502-5.68542 2.2632 6.04422c1.2446 3.3266 2.5822 8.11962 2.9669 10.6533 0.3849 2.53367 1.1545 5.341 1.7111 6.23744 1.8551 2.98787-0.079-8.4287-2.8013-16.5457-2.4047-7.1702-2.4805-8.00991-0.9384-10.3635 1.6088-2.45533 1.4881-2.75844-3.0772-7.41038-4.189-4.26804-4.5966-5.10228-3.4223-6.9826 1.616-2.5875 1.7029-4.33307 0.2344-4.33307-0.5975 0-1.0761 0.518867-1.0761 1.15916s-0.732 1.8911-1.6284 2.78752c-2.4646 2.46457-1.9785 5.09852 1.5868 8.51437 3.923 3.75826 3.3692 5.32949-1.09 3.1049-2.5065-1.25042-4.0385-1.36377-6.4858-0.510593-2.1931 0.764605-3.4194 0.764043-3.8916 0-0.4585-0.741946-1.0603-0.7612-1.78-0.04127-0.72 0.71971-2.1152 0.720241-4.1815 0-2.3365-0.81454-3.9227-0.678368-6.3891 0.551988-4.4592 2.2246-5.013 0.653395-1.0901-3.10492 3.5654-3.41582 4.0515-6.04979 1.5869-8.51435-0.8964-0.896407-1.6284-2.14723-1.6284-2.78751 0-0.640315-0.4926-1.15917-1.0902-1.15917zm21.762 16.7251c2.9347-0.0261 5.7327 1.63937 4.5816 3.17391-6.137 8.17992-5.6993 7.79577-5.6993 4.92646 0-1.44164-0.728-3.64679-1.6147-4.91266-1.5001-2.14194-1.4281-2.34514 1.1042-2.98071 0.5285-0.132703 1.0847-0.202168 1.6282-0.206995zm-16.6146 0.02769c0.6777-0.01528 1.3471 0.03618 1.9181 0.179403 2.215 0.555965 2.5217 0.998355 1.5178 2.20794-0.6897 0.831281-1.5599 2.94452-1.9319 4.69186l-0.6761 3.17391-3.0221-4.20888c-2.9564-4.12768-2.9643-4.23845-0.828-5.38185 0.75-0.401409 1.8925-0.636857 3.0222-0.662392zm13.3166 20.6028c1.291-0.0739 1.6751 0.73089-0.026 1.80775-2.059 1.30208-7.6561 1.30208-9.715 0-2.5189-1.59294-0.6013-2.43686 2.4151-1.06256 2.0531 0.93549 3.3047 0.92987 5.1195-0.0413 0.8463-0.45293 1.6212-0.67021 2.2079-0.70377zm-9.715 6.18222c0.8797 0 1.5867 0.45817 1.5871 1.02118 0 0.56307-0.7073 1.00737-1.5871 1.00737-0.8797 0-1.5869-0.4443-1.5869-1.00737 0-0.56308 0.7072-1.02118 1.5869-1.02118zm9.6597 0c0.8798 0 1.5868 0.45817 1.587 1.02118 0 0.56307-0.7071 1.00737-1.587 1.00737s-1.6008-0.4443-1.6008-1.00737c0-0.56308 0.7209-1.02118 1.6008-1.02118zm-4.8713 4.81606 1.7665 17.9257 0.9107 15.3451 2.7048 0.91077c2.7093 0.90315 2.7009 1.87096 0 2.70473-2.0104 0.77138-8.8675 0.79303-10.8328 0-2.7095-0.90313-2.7156-1.80158 0.897-2.70473l1.8078-0.91077 0.897-15.3451zm0.041 41.7714c1.7282 0 3.1184 0.69532 3.1188 1.55936 0 0.86415-1.3904 1.55936-3.1188 1.55936-1.7282 0-3.1324-0.69521-3.1324-1.55936 0-0.86416 1.4042-1.55936 3.1324-1.55936z"/>
        <path id="Ladybug" d="m48.249 1e-4c-0.024-6.04e-4 -0.047 0.0042-0.067 0.0095-0.62 0.156063 0.4623 3.4076 2.6311 5.42241 2.1697 2.01482 5.2696 2.63187 5.7335 4.02676 0.4651 1.39377 0.9304 1.09062-1.0845 2.64047-2.0136 1.54986-1.2402 5.1067-2.4801 6.3466-1.2399 1.2388-5.422 4.80944-6.5069 4.80944s-2.4738-0.93361-4.1777-0.93361c-1.7047 0-4.8077-2.78807-5.5827-4.33792-0.7749-1.54986-1.0805-3.72359-3.4042-6.66722-2.3237-2.94365-8.9889-6.04196-10.0716-6.50692-1.086-0.46495-2.0178 1.24275 0.1509 3.10257 2.1709 1.85984 4.3363 2.01644 5.1112 2.79138 0.7749 0.77493 2.6337 3.56259 3.5646 5.42242 0.9289 1.85982 4.4924 6.97047 8.6759 9.44915 4.1847 2.47978 2.016 3.10037 3.8759 4.64915 1.8597 1.54985 6.5082 5.73076 8.9869 6.1957 0 0-6.8208-0.61993-9.6095 0-2.7884 0.61994-5.2645 1.86139-7.7421 7.9026-2.4798 6.04334-4.8001 17.4272-4.8001 17.4272s-13.0146 1.15991-14.4094 1.15991c-1.0463 0-4.4489 7.32072-6.0825 11.373-0.093 0.23138-0.174 0.45241-0.2546 0.66012-0.4028 0.90948-0.6925 1.4692-1.6032 2.61218 0 0-0.7426 1.01152-1.9051 1.63145-1.1613 0.61996-7.1188 3.17103-7.1952 3.79097-0.079 0.61993 1.588 1.16005 4.3757-0.31117 2.7887-1.47248 6.3623-3.53337 7.5535-6.18629l0.3868-0.70727c1.6284-3.02113 4.4924-10.0654 5.1111-10.2979 0.6201-0.23249 13.0121-0.6232 13.4759-0.23576 0 0 0.9324 9.76274 2.4049 13.6362 0 0-10.8473 10.6856-11.4674 14.2492-0.6187 3.56359-3.7133 11.7801-8.8267 14.5698-5.1123 2.78875-4.2879 5.21712 3.2063 0.18861 6.236-4.1835 7.0897-15.2189 9.3361-17.8515 3.4128-4.00056 8.987-7.4405 8.987-7.4405s2.9504 4.80722 8.0628 9.92067c5.1005 5.10046 10.0399 11.0996 21.2936 11.1278h0.085c11.2526-0.0282 16.2014-6.0273 21.303-11.1278 5.1123-5.11245 8.0534-9.92067 8.0534-9.92067s5.5754 3.43885 8.9871 7.4405c2.2472 2.63367 3.099 13.6691 9.336 17.8515 7.4953 5.02851 8.3293 2.60011 3.2158-0.18861-5.1124-2.78862-8.2163-11.0062-8.8362-14.5698-0.6188-3.5636-11.4673-14.2492-11.4673-14.2492 1.4714-3.87343 2.4048-13.6362 2.4048-13.6362 0.4649-0.38636 12.8559 3e-3 13.4759 0.23576 0.6189 0.23249 3.4934 7.27676 5.1206 10.2979l0.3865 0.70727c1.1906 2.65297 4.764 4.71389 7.5538 6.18629 2.7886 1.4712 4.4542 0.9311 4.3757 0.31117-0.08-0.61994-6.0435-3.17101-7.2047-3.79097-1.1624-0.61993-1.905-1.63145-1.905-1.63145-0.9106-1.14293-1.2006-1.7027-1.6031-2.61218-0.081-0.20771-0.1621-0.42978-0.2547-0.66012-1.6349-4.05223-5.0374-11.373-6.0826-11.373-1.3948 0-14.4094-1.15991-14.4094-1.15991s-2.3203-11.3839-4.8-17.4272c-2.4796-6.04228-4.9536-7.28373-7.7421-7.9026-2.7887-0.61885-9.6097 0-9.6097 0 2.4798-0.46494 7.1273-4.64585 8.987-6.1957 1.8599-1.54878-0.3076-2.17045 3.8759-4.64915 4.1848-2.47975 7.7461-7.59041 8.6759-9.44915 0.9301-1.85983 2.7887-4.64642 3.5646-5.42242 0.775-0.77494 2.9416-0.93262 5.1114-2.79138 2.1698-1.85875 1.2357-3.56752 0.1507-3.10257-1.0847 0.46496-7.7478 3.56327-10.0715 6.50692-2.3236 2.94363-2.6293 5.11736-3.4042 6.66722-0.7749 1.54985-3.8686 4.33792-5.5735 4.33792-1.7037 0-3.102 0.93361-4.1869 0.93361-1.085 0-5.2683-3.57064-6.5069-4.80944-1.2389-1.2399-0.4665-4.79674-2.4802-6.3466-2.0148-1.54985-1.5483-1.24562-1.0845-2.64047 0.4649-1.39489 3.565-2.01301 5.7336-4.02676 2.17-2.01373 3.25-5.26635 2.631-5.42241-0.6199-0.154992-3.5603 2.48205-3.4043 3.87584 0.1549 1.39488-3.2542 2.48018-4.6491 2.48018-1.3937 0-2.4796 1.23767-3.2534 1.54656-0.9396 0.37564-0.938 0.30945-4.4512 0.41493-3.5128-0.10545-3.5219-0.0392-4.4605-0.41493-0.7748-0.30889-1.8606-1.54656-3.2533-1.54656-1.395 0-4.8042-1.0853-4.6492-2.48018 0.1502-1.35023-2.6022-3.87032-3.3384-3.88528zm0.5091 46.3311c2.9524 0 5.3465 2.39468 5.3469 5.34698 0 2.95269-2.3941 5.34698-5.3469 5.34698-2.9526 0-5.347-2.39429-5.347-5.34698s2.3944-5.34698 5.347-5.34698zm31.6009 0.21689c2.9524 0 5.3465 2.38525 5.3468 5.34276s-2.3941 5.34236-5.3468 5.34236c-2.9526 0-5.3468-2.38486-5.3468-5.33755 0-2.95268 2.3942-5.34698 5.3468-5.34698zm-5.0075 25.9805c2.9523 0 5.3371 2.3947 5.3377 5.347 0 2.95266-2.3849 5.34695-5.3377 5.34695-2.9527 0-5.3469-2.39429-5.3469-5.34695 0-2.9527 2.3942-5.347 5.3469-5.347zm-21.5198 0.0377c2.9522 0 5.3464 2.39466 5.3469 5.347 0 2.95263-2.3942 5.34698-5.3469 5.34698s-5.347-2.39431-5.3471-5.34698c0-2.95278 2.3944-5.347 5.3471-5.347z"/>
        <path id="Mosquito" d="m25.867 129.376c2.3985-4.85329 7.9567-18.785 11.1474-27.9413 1.5511-4.45084 1.7099-5.54162 1.1038-7.57842-0.3895-1.30856-1.6302-6.32891-2.7572-11.1563-1.8152-7.77533-1.9426-8.94107-1.117-10.2144 0.5126-0.79052 1.913-3.21661 3.112-5.39129s2.8682-4.975 3.7095-6.22301c1.6902-2.50732 1.6362-3.11-0.1914-2.13447-0.6652 0.35512-2.8605 0.85135-4.8784 1.10274-2.3273 0.28991-3.9137 0.85643-4.3391 1.54937-0.3686 0.6008-1.8951 3.34644-3.392 6.10129-7.831 14.4118-7.2382 13.6473-16.02 20.6614-2.2807 1.82152-9.2959 5.63775-10.9908 5.97894-2.038 0.4102-2.3051 0.63586 4.7352-3.99964 10.6079-6.98461 11.8725-8.36389 17.7988-19.4128l5.4784-10.2138-7.6513-0.71843c-4.2081-0.39511-8.983-1.09301-10.6106-1.55086-7.4712-2.10153-10.8796-7.35298-6.8366-10.5332 2.0886-1.64295 5.446-1.76235 11.0719-0.39376 4.8633 1.18296 19.6248 3.64088 21.8668 3.64088 0.892 0 2.8516-0.627232 4.3543-1.39383l2.732-1.39385-2.3398-0.80437c-6.4818-2.22833-10.8564-7.90259-11.9988-15.5633-0.4268-2.86281-0.8524-3.35831-8.6969-10.1264-4.5366-3.91398-8.0923-7.27233-7.9015-7.46304 0.1907-0.1907 0.7245-0.0591 1.1863 0.29236 0.4618 0.3515 4.2731 3.34851 8.4692 6.66002l7.6296 6.02089 1.1545 4.80154c0.635 2.64086 1.6229 5.79368 2.1956 7.00623 1.0267 2.17428 6.2304 6.12147 9.2333 7.00383 1.2539 0.36847 1.4827 0.18554 1.4827-1.18572 0-0.90019 0.4847-1.80734 1.0897-2.0395 0.9818-0.37676 0.9656-0.50882-0.1638-1.3346-1.1161-0.93164-1.1161-0.41252 0.4412-2.48903 2.5956-1.55737 1.5573-39.4537 2.5956-38.9346 1.0383-0.519122 0 37.3772 2.5957 38.9346 1.5574 2.07651 1.5574 1.55739 0.4236 2.48903-1.1294 0.82578-1.1456 0.95783-0.1638 1.3346 0.6051 0.23215 1.0897 1.13931 1.0897 2.0395 0 1.37126 0.2289 1.55419 1.4827 1.18572 3.0029-0.88236 8.2067-4.82955 9.2333-7.00383 0.5727-1.21255 1.5607-4.36537 2.1957-7.00623l1.1545-4.80154 7.6295-6.02089c4.1962-3.31151 8.0074-6.30852 8.4692-6.66002 0.4619-0.3515 0.9957-0.48306 1.1863-0.29236 0.1908 0.19071-3.3649 3.54906-7.9015 7.46304-7.8445 6.76804-8.2701 7.26354-8.6969 10.1264-1.1423 7.66071-5.517 13.335-11.9987 15.5633l-2.3398 0.80437 2.7319 1.39385c1.5027 0.7666 3.4623 1.39383 4.3544 1.39383 2.2419 0 17.0035-2.45792 21.8667-3.64088 5.6259-1.36859 8.9833-1.24919 11.0719 0.39376 4.043 3.18023 0.6346 8.43168-6.8366 10.5332-1.6276 0.45785-6.4025 1.15575-10.6106 1.55086l-7.6513 0.71843 5.4784 10.2138c5.9264 11.0489 7.1909 12.4282 17.7989 19.4128 7.0402 4.6355 6.7731 4.40984 4.7351 3.99964-1.6949-0.34119-8.7101-4.15742-10.9907-5.97894-8.7818-7.01405-8.1891-6.24955-16.02-20.6614-1.497-2.75485-3.0235-5.50049-3.3921-6.10129-0.4253-0.69294-2.0117-1.25946-4.339-1.54937-2.0179-0.25139-4.2131-0.74762-4.8784-1.10274-1.8276-0.97553-1.8817-0.37285-0.1914 2.13447 0.8412 1.24801 2.5104 4.04833 3.7094 6.22301s2.5995 4.60077 3.1122 5.39129c0.8255 1.27332 0.6981 2.43906-1.1171 10.2144-1.127 4.8274-2.3678 9.84775-2.7572 11.1563-0.6062 2.0368-0.4474 3.12758 1.1037 7.57842 3.1907 9.1563 8.7489 23.088 11.1474 27.9413 1.2801 2.58995 1.9704 4.59008 1.5341 4.44465-0.4362-0.14539-2.4333-3.52439-4.4379-7.50879-4.3083-8.56335-4.133-8.16506-8.9475-20.3297l-3.777-9.54343 2.7091-11.0006 2.709-11.0006-3.4032-6.30757c-3.6548-6.77411-7.1035-12.4562-7.1035-11.7042 0 0.25459 0.4551 3.4926 1.0113 7.19576 0.8139 5.41916 0.8681 7.7006 0.2781 11.6928-1.2081 8.17311-1.8773 10.2789-3.2663 10.2789s-2.0583-2.10579-3.2664-10.2789c-0.59-3.99218-0.5357-6.27362 0.2782-11.6928 0.5561-3.70316 1.0112-6.94117 1.0112-7.19576 0-0.75204-3.4486 4.93009-7.1035 11.7042l-3.4032 6.30757 5.4182 22.0012-3.7771 9.54343c-4.8145 12.1647-4.6392 11.7664-8.9475 20.3297-2.0046 3.9844-4.0016 7.3634-4.4379 7.50879-0.4363 0.14543 0.254-1.8547 1.5341-4.44465zm20.0478-76.9443c-0.027-1.28227-1.1539-2.05863-2.4846-1.71063-1.7491 0.45734-1.9021 1.33351-0.306 1.75055 1.898 0.49603 2.8012 0.48313 2.7906-0.0402zm7.7533 0.0789c1.8883-0.50606 1.8988-1.29915 0.023-1.78952-1.3307-0.348-2.4585 0.42836-2.4847 1.71063-0.012 0.59111 0.4897 0.6072 2.4612 0.0789z"/>
        <path id="Pillbug" d="m1.63 12.5101c2.9434-2.7469 11.004-6.2347 15.7801-6.82801 5.3884-0.66939 14.7371-0.25923 19.1255 0.8391 3.7689 1.76277 3.6847 2.07155 6.6501 5.5855 1.1214 3.10636 6.7922 3.04325 8.4582-0.1684 2.4391-2.85912 3.0265-3.63701 4.8145-4.20323 2.1129-0.7663 1.987-0.61463 3.845-1.03775 1.6169-0.3682 4.5775-1.00795 8.3196-1.00378 4.7743 5e-3 6.5493 0.30826 9.2676 1.58176 4.5725 2.14225 8.8113 5.10573 12.9764 9.07259 2.3512 2.23908 0.9998 1.51056-2.0426-0.078-9.0639-8.02154-20.7977-11.1802-31.9221-5.84712-1.2552 0-1.5396 3.63782-0.3377 4.31826 0.5961 0.33745 1.6346 1.24678 2.3079 2.02075 0.6732 0.77394 2.4678 2.84749 3.9877 4.6079l2.7637 3.20071 2.4349-1.48869c1.3393-0.81881 2.7884-1.95554 3.2205-2.5261 0.4321-0.57055 0.9962-0.82634 1.2537-0.56841 0.7463 0.74756-2.3373 6.49857-3.72 6.9382-1.196 0.38024-1.1786 0.56265 0.3746 3.90418 1.9061 4.10107 2.1346 6.1962 0.6119 5.61089-0.8378-0.32202-0.8062-0.0876 0.1681 1.25301 0.8595 1.18274 2.0986 1.77472 4.381 2.0932 3.7051 0.51702 5.3082 1.84913 3.4173 2.83949-0.6711 0.35148-2.0124 0.54912-2.9806 0.43921-1.7047-0.19353-1.7498-0.10612-1.4268 2.76385 0.2601 2.31211 0.095 3.0552-0.749 3.3798-1.533 0.58928-0.2897 2.69706 1.9182 3.25219 1.5561 0.39119 4.3715 2.59915 4.3715 3.42824 0 0.18524-1.0388 0.33679-2.3086 0.33679-2.1453 0-2.3043 0.14743-2.2493 2.0849 0.057 2.00834-1.1911 3.57085-2.3024 2.88277-0.8537-0.52845-0.6369 0.27756 0.8708 3.2378 0.7739 1.51974 1.4977 3.9779 1.6083 5.4626 0.133 1.78643 0.6237 2.93359 1.4505 3.39173 1.5444 0.85562 2.8809 2.53365 2.9094 3.6528 0.033 1.26753-1.8947 1.0146-4.4844-0.58867l-2.3109-1.43063 0.4005 2.27262c0.8079 4.58438 0.8793 6.97782 0.2569 8.61756-0.5072 1.33627-0.3771 1.88987 0.6391 2.71837 0.702 0.57221 2.1157 2.17706 3.1418 3.56631 2.0982 2.84097 1.4869 3.20983-2.5321 1.52777l-2.3849-0.99818-0.4404 2.00854c-0.2422 1.10469-0.6885 2.00854-0.9918 2.00854-0.9712 0-1.1665 6.33519-0.218 7.07261 0.9494 0.73805 2.3467 7.07258 1.56 7.07258-0.2681 0-1.3353-0.78714-2.3715-1.74918-1.6443-1.52644-1.9608-1.61222-2.4852-0.67359-0.3305 0.59159-1.1154 1.08483-1.7443 1.0961-1.0515 0.0189-1.0483 0.076 0.039 0.71066 1.3999 0.8166 3.1876 4.81616 3.1876 7.13158v1.63595l-2.4214-1.84996c-2.2051-1.68473-2.479-1.7467-3.0673-0.69369-0.3553 0.63595-0.9325 0.97887-1.2827 0.76204-1.0905-0.67511-1.8695 2.57686-0.9741 4.0671 1.0195 1.69723 0.9461 4.51222-0.1273 4.87449-0.4466 0.15076-1.2479-0.77077-1.7804-2.04782-1.0537-2.5259-2.4507-3.82099-2.4507-2.27183 0 0.53221-0.454 1.34499-1.0087 1.80619-0.8089 0.67253-1.2304 0.65551-2.1288-0.0859-1.0134-0.83632-1.0736-0.73687-0.6308 1.04312 0.2691 1.08217 1.0759 2.71438 1.7926 3.62714 1.5389 1.95967 1.6407 3.05311 0.3818 4.09969-0.7253 0.60291-1.4053 0.22476-3.1941-1.77592-1.2499-1.39806-2.7474-3.27285-3.3277-4.16619-1.0497-1.61585-1.0538-1.61147-0.767 0.84802 0.2264 1.94278 0.056 2.47229-0.7942 2.47229-0.5951 0-1.0822-0.41265-1.0822-0.91698 0-0.61488-0.5537-0.81091-1.6811-0.59505-0.9246 0.17706-1.6811 0.58968-1.6811 0.91696 0 1.31682-1.9402 0.49006-2.1601-0.9205-0.2052-1.31531-0.4322-1.14321-1.7189 1.30265-0.8154 1.55001-2.1674 3.30187-3.0045 3.893-1.4537 1.02656-1.5313 1.00062-1.7298-0.57789-0.1144-0.90896 0.4302-2.90538 1.2099-4.43648 0.8828-1.73324 1.2482-3.31917 0.9684-4.20239-0.4002-1.26263-0.5183-1.29544-1.0753-0.29849-1.0443 1.86934-2.4841 1.28645-2.9487-1.19373-0.2383-1.27261-0.2053-2.68344 0.074-3.13519 0.3235-0.52448 0.2262-0.64764-0.2696-0.34075-0.427 0.26436-0.7764 0.84372-0.7764 1.28752 0 0.44378-1.0978 1.81609-2.4395 3.04958-2.1541 1.98025-2.556 2.12601-3.4348 1.24558-0.8791-0.88043-0.7904-1.29965 0.7583-3.58249 0.9646-1.42195 1.7538-3.0888 1.7538-3.70411 0-1.57785-1.8195-2.08842-3.5655-1.00054-0.8128 0.50638-2.4686 1.10308-3.6796 1.326-1.9377 0.35668-2.1267 0.26551-1.5749-0.7599 0.3449-0.64086 1.4112-1.8452 2.3699-2.67631 0.9586-0.83112 1.743-1.81622 1.743-2.18915 0-0.37291 0.4539-0.67803 1.0087-0.67803s1.0087-0.57784 1.0087-1.28409c0-0.95248-0.3474-1.19312-1.3449-0.93181-1.0321 0.27035-1.3449 0.0207-1.3449-1.07344 0-0.78414-0.3026-1.42572-0.6725-1.42572-0.3698 0-0.6723 0.28269-0.6723 0.62819 0 0.80414-2.3134 1.54498-5.6293 1.80273-2.7321 0.21239-2.7893-0.0895-0.2665-1.40755 0.8387-0.4382 1.4474-1.15646 1.3526-1.59616-0.094-0.4397 0.5767-1.14123 1.492-1.55898 0.9152-0.41774 1.5044-1.01833 1.3093-1.33463-0.1952-0.31629 0.1169-0.57508 0.6935-0.57508 0.7941 0 1.0484-0.73485 1.0484-3.03111 0-2.24526-0.2616-3.03111-1.0087-3.03111-0.5549 0-1.0465-0.60623-1.0927-1.34717-0.1987-3.18461-0.091-3.11138-2.9419-2.00855-1.1097 0.42926-2.8776 0.89441-3.929 1.03363-1.5886 0.21038-1.7776 0.0916-1.1189-0.70361 0.436-0.52622 0.5976-1.27317 0.359-1.65986-0.2387-0.38669-0.091-0.7031 0.3263-0.7031 0.4181 0 1.2289-0.46953 1.8019-1.04344 0.5728-0.57389 1.8861-1.21263 2.9183-1.41942 2.4042-0.48164 3.1375-2.80652 1.2934-4.10039-1.5711-1.10231-1.692-3.64752-0.3537-7.44718l0.9613-2.72894-2.4743 0.34359c-1.3608 0.18896-3.3553 0.62247-4.4324 0.96333-1.077 0.34088-2.0966 0.48128-2.2654 0.31201-0.4292-0.42979 1.6173-2.39264 2.4945-2.39264 0.3963 0 0.7205-0.28269 0.7205-0.62819s0.6668-0.84016 1.4816-1.09924c2.1868-0.6952 3.0741-1.83088 3.5922-4.59755 0.2552-1.3624 1.1488-3.48804 1.9859-4.72366 1.2325-1.81928 1.3209-2.23131 0.4646-2.16638-0.5816 0.0441-1.4047-0.6-1.8293-1.43136-0.4244-0.83135-0.9133-1.36979-1.0863-1.1965-0.1729 0.17328-1.7595 0.48881-3.5259 0.7012l-3.2113 0.38615 1.4004-1.5058c0.7703-0.82818 1.4006-1.75173 1.4006-2.05235s0.4538-0.54657 1.0085-0.54657c0.5549 0 1.0087-0.30311 1.0087-0.67358 0-0.37046 0.227-0.640799 0.5044-0.600719 1.1247 0.162449 3.5349-0.95325 3.6011-1.66697 0.039-0.41989 0.1618-1.97586 0.2732-3.45775 0.1112-1.48187 0.3063-3.4521 0.4335-4.37827 0.205-1.49357-0.038-1.70663-2.1488-1.88455-1.4829-0.12498-2.6917-0.70066-3.2071-1.52726-0.7199-1.15462-0.6208-1.40527 0.7636-1.93255 0.875-0.33319 2.9233-0.54972 4.5521-0.48114 2.9241 0.12311 6.0402-1.45387 4.1318-2.09108-1.2321-0.41141-1.0187-2.44474 0.6086-5.80004l1.4431-2.97537-1.4431-2.03009c-1.9081-2.68435-1.9638-6.20041-0.098-6.20041 0.7471 0 1.3448 0.44907 1.3448 1.01039 0 0.5557 0.3026 1.01038 0.6725 1.01038 0.3698 0 0.6723 0.42222 0.6723 0.9383 0 2.85731 4.8607 0.0452 6.9201-4.00374 0.575-1.13024 2.1346-2.6426 3.4659-3.36075 2.7718-1.49523 3.0033-3.51121 0.5524-4.81061-10.7798-3.10638-22.9429-2.77745-33.0365 2.21869-3.6169 1.89036-5.3782 2.8081-2.7207 0.32817zm15.9508 70.9179c0.3004 0.18591 3.402-0.39635 6.8926-1.29391 5.6986-1.46537 7.7613-1.63333 20.2078-1.64545 15.3877-0.015 19.8735 0.56083 23.597 3.02914 1.3876 0.91982 2.6807 1.67242 2.8737 1.67242 0.6697 0 0.3458-7.40745-0.4551-10.4071-0.4498-1.68488-1.2664-3.12289-1.8491-3.25669-0.5741-0.13178-8.1764-0.0992-16.894 0.0724-10.7387 0.21135-16.919 0.0595-19.1646-0.47103-1.8227-0.43064-5.0482-0.85275-7.1674-0.93803-3.4187-0.13758-3.9872 0.0324-5.0433 1.50807-2.4313 3.39767-4.3472 10.8947-2.9976 11.7302zm2.6481-14.1064c2.6548-0.55398 3.9966-0.53179 14.2893 0.23634 3.5135 0.2622 12.1375 0.32517 19.1645 0.13995 11.1108-0.29288 13.1271-0.18505 15.4662 0.82717 3.5089 1.51846 4.3708 1.48525 4.3708-0.1684 0-2.53476-3.7998-9.92346-5.3581-10.4189-0.8085-0.25704-7.2717-0.25667-14.3625 7.8e-4 -8.2046 0.29794-15.2834 0.19614-19.4674-0.27994-9.2586-1.05348-11.5686-0.56994-13.8176 2.8925-1.8022 2.77454-2.6146 4.66624-2.7399 6.37971-0.052 0.70816 0.5072 0.79713 2.4547 0.39074zm-0.3361-9.93631c0.832-0.20125 2.8526-0.74179 4.4901-1.20118 2.3709-0.66516 4.3744-0.6642 9.8379 4e-3 4.7557 0.58221 10.6941 0.69091 19.3556 0.35431 9.3914-0.36497 13.2622-0.27043 15.5835 0.38062 1.8051 0.50623 3.3176 0.61558 3.6398 0.26316 0.7044-0.77073-2.2072-9.67972-3.4138-10.4457-1.2999-0.82514-42.7343-0.74034-45.7315 0.0936-1.9267 0.53606-2.7628 1.30007-3.866 3.53255-0.7742 1.56669-1.4079 3.86899-1.4082 5.11621-3e-4 2.01111 0.1707 2.22627 1.5126 1.90173zm-0.2586 35.1118c0.447 0.70605 1.0967 0.58351 3.1838-0.60058 4.9301-2.79691 8.5161-3.30115 23.5357-3.30961 14.9645-8e-3 17.1385 0.31894 20.9521 3.15513 2.6446 1.96685 3.1235 1.30506 2.6126-3.61037-0.1863-1.79159-0.3599-3.58261-0.3859-3.98003-0.027-0.39741-1.4847-1.44832-3.2415-2.33534-3.0465-1.53823-3.9242-1.62443-18.9964-1.86531-14.4919-0.23162-16.2485-0.13306-21.1819 1.18848-2.9586 0.79258-5.7577 1.93929-6.2199 2.54824-0.9425 1.24137-1.1244 7.44157-0.2586 8.80939zm4.0394-46.946c4.4987-0.96644 43.5651-1.06491 46.0565-0.1161 2.4896 0.94821 2.4468 0.96837 2.4299-1.14399-0.019-2.39039-2.0126-6.63572-4.4568-9.4909l-1.926-2.24994-5.6294 0.82454c-3.6593 0.53596-10.2836 0.71233-18.9288 0.50393-8.258-0.19908-13.7692-0.0644-14.5391 0.35543-2.2435 1.22344-4.5844 4.56688-5.6698 8.09804-0.5874 1.91095-0.9865 3.57984-0.8869 3.70863 0.1 0.12881 1.6972-0.0916 3.5504-0.48964zm-1.0044 58.4477 0.8251 2.28507 2.4088-2.11851c1.3248-1.16519 4.1834-2.95125 6.3524-3.96903 3.5644-1.67247 4.6554-1.84859 11.3407-1.8306 8.4413 0.0227 13.8241 1.57746 18.901 5.45925l2.8438 2.17448 1.189-2.47966c0.654-1.3638 1.3202-4.22262 1.4804-6.35293l0.2915-3.87329-3.7591-1.72386c-3.7504-1.71992-3.7939-1.72321-19.0771-1.44479-16.0113 0.29168-17.8832 0.5238-21.5099 2.66727-2.1012 1.24176-2.2113 1.50238-2.1627 5.11498 0.029 2.0936 0.4224 4.83483 0.8761 6.09162zm2.2668-70.9802c0.6472-0.25899 9.3469-0.62546 19.3326-0.81441 23.7992-0.45033 23.0866-0.46456 24.2275 0.48396 1.5228 1.26583 1.249-0.22084-0.7786-4.22864-1.7797-3.51813-5.5597-8.55109-6.4392-8.57363-0.2606-6e-3 -1.2302 0.74564-2.1549 1.67182-1.658 1.66088-1.8339 1.68395-12.8375 1.68395-10.8429 0-11.2012-0.0449-12.7513-1.59771l-1.595-1.59775-2.7096 2.7765c-3.9912 4.08992-7.0226 11.2877-4.294 10.1959zm1.5282 79.1357c0.5728 0.86753 0.8327 0.80713 1.839-0.42719 1.8538-2.27434 5.1802-2.94806 11.5945-2.34837 3.1523 0.29472 8.0825 0.25638 10.9929-0.0855 6.5259-0.76655 8.2007-0.37195 9.8329 2.31674l1.2834 2.11387 0.3885-1.62675c0.6584-2.75608 0.8691-5.8662 0.4388-6.4786-0.2253-0.32079-1.2869-1.25813-2.359-2.08298-1.9122-1.4712-1.9889-1.47657-4.0346-0.28218-1.147 0.66967-4.5845 1.78406-7.6391 2.47648-4.5519 1.03189-6.189 1.12988-9.0778 0.54343-5.4487-1.10614-6.2679-1.34751-8.5019-2.50466-1.1457-0.59347-2.0831-0.8168-2.0831-0.49628s-0.7565 0.92802-1.681 1.35003c-1.4143 0.64544-1.6796 1.22403-1.6708 3.6444 0.011 1.58244 0.3104 3.33184 0.6773 3.88754zm2.7251 5.38865c0.3053 0 0.797-0.41043 1.0927-0.91205 1.1802-2.00156 3.9175-2.61082 12.9057-2.87247 9.7016-0.28241 11.6218 0.14082 14.2119 3.13221 1.1587 1.33816 1.1666 1.33725 1.5726-0.18009 0.5735-2.14461 0.5247-5.88928-0.077-5.97583-0.2773-0.0399-6.2537-0.14396-13.2807-0.23137-15.7023-0.19532-16.8124 0.16664-16.9424 5.52403-0.02 0.83356 0.213 1.51557 0.5182 1.51557zm6.0014-13.3396c5.8396 1.90013 12.1408 1.38633 19.4861-1.58891 1.5714-0.63651 1.5938-0.71566 0.3939-1.38832-0.9147-0.51272-1.9146-0.48073-3.5557 0.11371-1.4368 0.52042-5.4469 0.78027-10.8167 0.70094-4.6935-0.0694-8.8211-0.0955-9.1724-0.0581-1.2076 0.12848 0.5988 1.22305 3.6648 2.22068zm-0.7682 15.8812c1.7841-1.50372 2.4529-1.6165 9.3437-1.57544 6.0829 0.0363 7.6565 0.25688 8.7222 1.223 1.8813 1.70549 2.2029 1.49018 2.2029-1.47428 0-2.64123-0.014-2.65515-3.1316-3.12348-1.7224-0.25873-6.3371-0.26802-10.2546-0.0207-7.7913 0.49197-8.8042 1.02564-8.8042 4.63866v1.95188zm0.487-98.9966c0.5849 0.22487 6.0211 0.40885 12.0802 0.40885 10.2036 0 11.068-0.0961 11.7128-1.30287 1.0919-2.04386 0.8236-3.51647-0.7757-5.00894-1.5558-1.45185-4.2187-1.8309-4.9165-0.69983-0.6125 0.99272-3.8386 0.7793-5.3325-0.35278-1.1487-0.87051-1.4425-0.85253-2.5553 0.15636-1.2726 1.15363-1.4769 1.12765-5.9404-0.75514-1.6207-0.68365-5.3362 3.21585-5.3362 5.60043 0 1.15023 0.4337 1.71187 1.0636 1.95392zm5.6606 80.1827c2.0342-6e-3 5.2115-0.23321 7.0607-0.50397l3.3623-0.49229-2.3537-0.46777c-3.8409-0.7634-6.1602-0.80189-10.4228-0.17298-4.8387 0.71392-3.485 1.65542 2.3535 1.63701zm-2.6861 22c0.3679 0.22774 0.9942 0.21263 1.392-0.0335 0.7964-0.49305-1.49-2.99981-2.736-2.99981-0.8246 0 0.2078 2.3299 1.344 3.03334zm6.2387 0.84912c0.3096-0.83833 1.2026-2.20641 1.9847-3.04015l1.4216-1.51591h-9.043l2.5369 3.04016c2.4404 2.92451 2.5583 2.98216 3.0998 1.5159zm4.8529-1.86173c1.2329 0 1.6812-0.35924 1.6812-1.34716 0-1.61866-0.8692-1.72748-2.3056-0.28867-1.4226 1.42502-1.3421 1.63583 0.6244 1.63583z" stroke-width=".708661"/>
        <path id="QueenBee" d="m62.982 83.9717c-5.07458-2.50027-8.00444-7.89948-10.2787-18.9419l-0.55582-2.6986-2.6298 3.14808c-5.82869 6.97734-12.746 13.5381-13.8765 13.1612-2.30771-0.76925-1.9023-2.59461 0.89784-4.04265 2.84411-1.47071 12.5675-14.7723 16.5664-22.6629l2.12521-4.19348-2.23802 0.69253c-4.84259 1.49842-9.60542 4.49389-10.3785 6.52727-1.19149 3.13391-10.3034 11.3171-12.6015 11.3171-2.93053 0-2.39896-1.49204 1.31157-3.6813 1.80745-1.06643 5.01369-4.48063 7.12508-7.58713 3.25157-4.78426 4.89013-6.15597 10.713-8.96819 3.78078-1.82603 6.69664-3.49767 6.47961-3.71472-0.2171-0.21707-4.15981 1.22245-8.76151 3.19895-7.10623 3.05219-9.035 3.50207-12.801 2.98588-4.52464-0.62017-12.8626-5.25436-15.0356-8.3566-0.66186-0.94505-2.94396-2.18692-5.07121-2.75973-4.54377-1.22351-10.3094-6.73941-12.4728-11.9327l-1.4993-3.59905 3.14379-1.71386c4.91864-2.68148 16.9917-2.21915 24.4103 0.93475 3.18999 1.35616 9.71496 3.65458 14.4999 5.10757 4.78497 1.453 9.35245 2.86808 10.1499 3.14461 0.79751 0.27655-1.26874-1.99243-4.59165-5.04217-4.076-3.7409-6.04162-6.27338-6.04162-7.78385 0-1.26984-1.4644-3.70325-3.38332-5.6222-4.40914-4.4091-4.3348-6.0974 0.13485-3.06418 1.93506 1.31313 4.05843 2.38753 4.71857 2.38753 0.66023 0 1.68981 1.9437 2.288 4.31934 0.82744 3.28612 1.94916 4.90476 4.68916 6.76663 5.26414 3.57712 7.01112 3.28301 6.74877-1.13622-0.18117-3.05092 0.18229-3.77711 2.44553-4.88606 1.46209-0.7164 2.65745-1.60506 2.65629-1.97479 0-0.36973-3.23028-3.06475-7.17589-5.98889-3.94563-2.92416-6.80501-5.45071-6.35425-5.61454 0.45084-0.16385 3.89495 1.74703 7.65363 4.24641 9.41055 6.25755 12.9799 6.25755 22.3904 0 3.75865-2.49938 7.2028-4.41026 7.65363-4.24641 0.45077 0.16383-2.40864 2.69038-6.35424 5.61454-3.94563 2.92414-7.17487 5.61916-7.17592 5.98889 0 0.36973 1.19422 1.25839 2.65629 1.97479 2.26323 1.10895 2.6267 1.83514 2.44556 4.88606-0.26234 4.41923 1.4846 4.71334 6.74873 1.13622 2.74001-1.86187 3.86173-3.48051 4.6892-6.76663 0.59816-2.37564 1.62775-4.31934 2.28796-4.31934 0.66015 0 2.78353-1.0744 4.71858-2.38753 4.46965-3.03322 4.54399-1.34492 0.13484 3.06418-1.91893 1.91895-3.38331 4.35236-3.38331 5.6222 0 1.51047-1.96562 4.04295-6.04162 7.78385-3.3229 3.04974-5.38914 5.31872-4.59165 5.04217 0.7975-0.27653 5.36498-1.69161 10.15-3.14461 4.78498-1.45299 11.3099-3.75141 14.4999-5.10757 7.41865-3.1539 19.4917-3.61623 24.4103-0.93475l3.14377 1.71386-1.49928 3.59905c-2.16347 5.1933-7.92905 10.7092-12.4728 11.9327-2.12725 0.57281-4.40933 1.81468-5.0712 2.75973-2.17287 3.10224-10.5109 7.73643-15.0356 8.3566-3.76605 0.51619-5.69482 0.0663-12.801-2.98588-4.6017-1.9765-8.54442-3.41602-8.76153-3.19895-0.21701 0.21705 2.69881 1.88869 6.47963 3.71472 5.82287 2.81222 7.46146 4.18393 10.713 8.96819 2.11134 3.1065 5.31759 6.5207 7.12503 7.58713 3.71055 2.18926 4.24211 3.6813 1.3116 3.6813-2.29806 0-11.41-8.1832-12.6015-11.3171-0.77302-2.03338-5.53588-5.02885-10.3785-6.52727l-2.23802-0.69253 2.1252 4.19348c3.99899 7.8906 13.7223 21.1922 16.5665 22.6629 2.80012 1.44804 3.20553 3.27342 0.89783 4.04265-1.13052 0.37685-8.04784-6.1839-13.8765-13.1612l-2.62981-3.14807-0.55584 2.69859c-2.29795 11.1572-5.24509 16.5176-10.436 18.9808-4.10822 1.9495-4.21966 1.94897-8.25422-0.0388zm10.2795-6.63538c2.32589-1.62913 4.41417-5.21358 5.37272-9.22198 0.59768-2.49898 0.58095-2.49488-2.79221 0.68644-1.86643 1.76025-4.86114 3.47577-6.65488 3.81228-3.95064 0.74115-9.37343-1.57533-12.2507-5.23314l-1.98215-2.51988 0.69418 2.88416c1.83907 7.64196 5.43446 11.1008 11.5393 11.1008 2.15584 0 4.88907-0.6789 6.07372-1.50866zm2.59076-14.8854c0.96336-1.06457 1.88315-3.92219 2.10017-6.52498 0.32219-3.86442 0.20696-4.28914-0.69618-2.56615-1.45105 2.76846-4.91211 4.2186-10.0685 4.2186-5.15637 0-8.61739-1.45014-10.0684-4.2186-0.90315-1.72299-1.01837-1.29827-0.69621 2.56615 0.58407 7.00611 2.39077 8.41908 10.7647 8.41908 5.67468 0 7.26496-0.34764 8.66448-1.8941zm-12.679-30.2623c3.55742-0.9498 8.75672-0.29823 13.4504 1.68554 2.77916 1.17459 1.06864-1.76934-2.12375-3.65512-3.57907-2.11422-11.0452-2.11422-14.6242 0-3.1974 1.88875-4.89255 4.81688-2.12375 3.66859 0.93641-0.38836 3.37606-1.15292 5.42133-1.69901z"/>
        <path id="Spider" d="m58.489 130.602c3.0884-12.3051 2.9098-21.3953-0.6043-30.767l-2.0404-5.44135-1.1446 5.06429c-1.4206 6.28443-5.2076 11.0805-11.6016 14.6929-4.6673 2.63683-5.0708 2.70487-8.225 1.38693-4.5099-1.88431-11.1762-8.05916-12.7441-11.8045-0.7074-1.68978-1.322-4.6973-1.3658-6.68337l-0.079-3.61103-2.4494 5.18662c-2.9243 6.19175-4.0159 19.5396-2.2656 27.701 0.6021 2.80733 0.9272 5.27174 0.7225 5.47645-0.2047 0.2047-1.1434-1.25298-2.086-3.23931-2.4409-5.14375-2.9675-19.722-1.0402-28.796 1.1485-5.40754 2.4078-8.24711 5.4357-12.2574 4.6301-6.13266 2.4556-5.51387-4.2747 1.2164-5.0694 5.06944-10.3314 15.339-12.7473 24.8782l-1.6633 6.56746-0.289-4.48546c-0.3619-5.616 2.9567-15.4814 8.4187-25.028 3.6188-6.32468 4.6306-7.33488 10.9424-10.9261 3.8253-2.17638 7.7584-3.9999 8.7404-4.05225 1.6405-0.0875 1.6305-0.14565-0.1243-0.71835-1.0503-0.34276-5.0037-2.34075-8.7855-4.43996-6.2065-3.44519-7.2487-4.46748-10.7052-10.5002-5.4286-9.47461-6.8825-14.1418-7.2875-23.3918-0.3224-7.36542-0.2617-7.71841 0.6575-3.81906 3.5404 15.0203 8.3261 24.6836 15.4983 31.2948 3.6061 3.32397 9.0414 6.89587 10.4933 6.89587 0.2436 0-1.8988-2.47046-4.7611-5.48991-2.8623-3.01944-5.7808-6.56402-6.4855-7.87682-4.0613-7.56538-4.5661-24.887-1.099-37.7132 1.2775-4.72609 2.856-11.3754 3.5076-14.7761 0.6518-3.40078 1.3563-5.66943 1.5656-5.04146 0.2094 0.62799-0.725 6.50737-2.0762 13.0653-4.8794 23.6809-2.0195 40.3277 8.6565 50.3858l2.7371 2.57855-0.3199-4.02146c-0.2393-3.00869 0.1981-4.68001 1.737-6.63632 1.1312-1.43817 2.5219-2.61484 3.0902-2.61484 0.5685 0 0.3225 0.7857-0.5467 1.74601-0.869 0.96032-1.5801 2.94632-1.5801 4.41336 0 2.26271 0.2173 2.48703 1.4322 1.47875 1.1769-0.97671 1.4322-0.90115 1.4322 0.42389 0 1.19579 0.6785 1.53442 2.6256 1.31036 1.4767-0.16991 2.5211-0.82432 2.3869-1.49556-0.1313-0.6564 0.191-1.19345 0.7161-1.19345s0.9547 0.42964 0.9547 0.95476 0.4297 0.95477 0.9548 0.95477c1.3903 0 1.1692-2.54458-0.5019-5.77602-1.9951-3.85814 0.026-3.62428 2.4711 0.28611 1.3155 2.10291 1.7919 4.10307 1.4781 6.20598-0.6102 4.09008 0.5221 3.91605 4.1258-0.63407 9.7806-12.3489 11.4972-26.1027 6.276-50.2834-1.2363-5.72608-2.0756-10.5834-1.8651-10.794 0.4651-0.46503 0.3775-0.76928 4.3642 15.1666 2.7159 10.8563 3.2072 14.4706 3.1148 22.9144-0.065 6.00586-0.6826 11.792-1.5389 14.4322-1.5501 4.77999-10.826 16.8221-13.1503 17.0719-1.0965 0.11784-1.1343 0.27283-0.1612 0.6613 1.7876 0.7137 10.7116-5.65611 14.4616-10.3224 5.7126-7.10855 11.4783-21.2704 11.4783-28.1932 0-1.17149 0.4984-2.43801 1.1075-2.81453 1.8586-1.1486 0.1699 12.9628-2.3975 20.0362-4.0784 11.2358-7.937 16.5249-15.1268 20.7347-3.5154 2.05841-7.3822 4.13994-8.5928 4.62564-1.4383 0.57698-1.6657 0.90407-0.6563 0.9436 0.8499 0.0333 4.4623 1.67169 8.0278 3.64089 7.2205 3.98785 10.3854 8.03175 15.505 19.8114 3.4879 8.02527 4.9849 13.2502 4.9921 17.4245 0.011 5.15302-1.3289 3.49691-3.0903-3.82582-2.8834-11.9882-9.5387-23.117-17.0025-28.4317-1.5489-1.10295-2.8163-1.83888-2.8163-1.63541 0 0.20348 1.6731 2.61237 3.7179 5.35309 2.7478 3.68279 4.0473 6.65523 4.98 11.3909 1.7869 9.07178 1.5712 21.5498-0.4779 27.6401-1.838 5.46328-4.2155 8.21896-3.0358 3.51888zm-14.3642-22.4486c3.0754-2.41903 5.3609-6.61755 5.3609-9.84773v-2.38874l-2.5262 2.34133c-2.1651 2.00643-3.452 2.34132-8.9971 2.34132-5.5684 0-6.8803-0.34469-9.4083-2.47178-3.4092-2.86862-3.7271-1.74596-1.127 3.97898 3.4766 7.65458 11.1302 10.4261 16.6977 6.04662zm-11.649 0c5.5675 4.37948 13.2211 1.60796 16.6977-6.04662 2.6001-5.72494 2.2822-6.8476-1.127-3.97898-2.528 2.12709-3.8399 2.47178-9.4083 2.47178-5.5451 0-6.832-0.33489-8.9971-2.34132l-2.5262-2.34133v2.38874c0 3.23018 2.2855 7.4287 5.3609 9.84773zm-14.3642 22.4486-6e-4 5e-5c1.1797 4.70008-1.1978 1.9444-3.0358-3.51888-2.0491-6.0903-2.2648-18.5683-0.4779-27.6401 0.9327-4.73567 2.2322-7.70811 4.98-11.3909 2.0448-2.74072 3.7179-5.14961 3.7179-5.35309 0-0.20347-1.2674 0.53246-2.8163 1.63541-7.4638 5.3147-14.1191 16.4435-17.0025 28.4317-1.7614 7.32273-3.1013 8.97884-3.0903 3.82582 0.01-4.1743 1.5042-9.39923 4.9921-17.4245 5.1196-11.7796 8.2845-15.8236 15.505-19.8114 3.5655-1.9692 7.1779-3.60759 8.0278-3.64089 1.0094-0.0395 0.782-0.36662-0.6563-0.9436-1.2106-0.4857-5.0774-2.56723-8.5928-4.62564-7.1898-4.2098-11.0484-9.4989-15.1268-20.7347-2.5674-7.0734-4.2561-21.1848-2.3975-20.0362 0.6091 0.37652 1.1075 1.64304 1.1075 2.81453 0 6.9228 5.7657 21.0846 11.4783 28.1932 3.75 4.66629 12.674 11.0361 14.4616 10.3224 0.9731-0.38847 0.9353-0.54346-0.1612-0.6613-2.3243-0.2498-11.6002-12.2919-13.1503-17.0719-0.8563-2.6402-1.4739-8.42634-1.5389-14.4322-0.092-8.4438 0.3989-12.0581 3.1148-22.9144 3.9867-15.9359 3.8991-15.6316 4.3642-15.1666 0.2105 0.2106-0.6288 5.06792-1.8651 10.794-5.2212 24.1807-3.5046 37.9345 6.276 50.2834 3.6037 4.55012 4.736 4.72415 4.1258 0.63407-0.3138-2.10291 0.1626-4.10307 1.4781-6.20598 2.4451-3.91039 4.4662-4.14425 2.4711-0.28611-1.6711 3.23144-1.8922 5.77602-0.5019 5.77602 0.5251 0 0.9548-0.42965 0.9548-0.95477s0.4296-0.95476 0.9547-0.95476 0.8474 0.53705 0.7161 1.19345c-0.1342 0.67124 0.9102 1.32565 2.3869 1.49556 1.9471 0.22406 2.6256-0.11457 2.6256-1.31036 0-1.32504 0.2553-1.4006 1.4322-0.42389 1.2149 1.00828 1.4322 0.78396 1.4322-1.47875 0-1.46704-0.7111-3.45304-1.5801-4.41336-0.8692-0.96031-1.1152-1.74601-0.5467-1.74601 0.5683 0 1.959 1.17667 3.0902 2.61484 1.5389 1.95631 1.9763 3.62763 1.737 6.63632l-0.3199 4.02146 2.7371-2.57855c10.676-10.0581 13.5359-26.7049 8.6565-50.3858-1.3512-6.55793-2.2856-12.4373-2.0762-13.0653 0.2093-0.62797 0.9138 1.64068 1.5656 5.04146 0.6516 3.4007 2.2301 10.05 3.5076 14.7761 3.4671 12.8262 2.9623 30.1478-1.099 37.7132-0.7047 1.3128-3.6232 4.85738-6.4855 7.87682-2.8623 3.01945-5.0047 5.48991-4.7611 5.48991 1.4519 0 6.8872-3.5719 10.4933-6.89587 7.1722-6.6112 11.9579-16.2745 15.4983-31.2948 0.9192-3.89935 0.9799-3.54636 0.6575 3.81906-0.405 9.25-1.8589 13.9172-7.2875 23.3918-3.4565 6.03272-4.4987 7.05501-10.7052 10.5002-3.7818 2.09921-7.7352 4.0972-8.7855 4.43996-1.7548 0.5727-1.7648 0.63085-0.1243 0.71835 0.982 0.0523 4.9151 1.87587 8.7404 4.05225 6.3118 3.59122 7.3236 4.60142 10.9424 10.9261 5.462 9.5466 8.7806 19.412 8.4187 25.028l-0.289 4.48546-1.6633-6.56746c-2.4159-9.5392-7.6779-19.8088-12.7473-24.8782-6.7303-6.73027-8.9048-7.34906-4.2747-1.2164 3.0279 4.01029 4.2872 6.84986 5.4357 12.2574 1.9273 9.074 1.4007 23.6522-1.0402 28.796-0.9426 1.98633-1.8813 3.44401-2.086 3.23931-0.2047-0.20471 0.1204-2.66912 0.7225-5.47645 1.7503-8.1614 0.6587-21.5092-2.2656-27.701l-2.4494-5.18662-0.079 3.61103c-0.044 1.98607-0.6584 4.99359-1.3658 6.68337-1.5679 3.74534-8.2342 9.92019-12.7441 11.8045-3.1542 1.31794-3.5577 1.2499-8.225-1.38693-6.394-3.6124-10.181-8.40847-11.6016-14.6929l-1.1446-5.06429-2.0404 5.44135c-3.5141 9.3717-3.6927 18.4619-0.6043 30.767z"/>
    </defs>
</svg>